# xmcd CD database file
#
# Track frame offsets:
#	150
#	34687
#	95308
#	144675
#	182012
#	209775
#	264820
#	305097
#
# Disc length: 4387 seconds
#
# Revision: 0
# Processed by: cddbd v1.5.1PL0 Copyright (c) Steve Scherf et al.
# Submitted via: CDex 1.51
#
DISCID=70112108
DTITLE=THE ALBERT BEGER QUARTET - ART OF THE MOMENT
DYEAR=1999
DGENRE=Jazz
TTITLE0=Who is the one
TTITLE1=Art of the moment
TTITLE2=Refugee
TTITLE3=sunset
TTITLE4=Born in Istanbul
TTITLE5=Art of the moment 2
TTITLE6=Kundalini
TTITLE7=Rain is coming
EXTD=YEAR: 1999
EXTT0=
EXTT1=
EXTT2=
EXTT3=
EXTT4=
EXTT5=
EXTT6=
EXTT7=
PLAYORDER=
